<svg width="135mm" height="85mm" viewBox="0 0 135000 85000" xmlns="http://www.w3.org/2000/svg"><defs><radialGradient cx="47100" cy="14500" r="150" gradientUnits="userSpaceOnUse" id="color-1"><stop offset="1" stop-color="#3f51b5"/><stop offset="1" stop-color="#1a237e"/></radialGradient><radialGradient cx="34800" cy="16700" r="150" gradientUnits="userSpaceOnUse" id="color-2"><stop offset="1" stop-color="#3f51b5"/><stop offset="1" stop-color="#1a237e"/></radialGradient><radialGradient cx="23000" cy="16000" r="150" gradientUnits="userSpaceOnUse" id="color-3"><stop offset="1" stop-color="#3f51b5"/><stop offset="1" stop-color="#1a237e"/></radialGradient><radialGradient cx="39800" cy="30500" r="150" gradientUnits="userSpaceOnUse" id="color-4"><stop offset="1" stop-color="#3f51b5"/><stop offset="1" stop-color="#1a237e"/></radialGradient><radialGradient cx="31700" cy="31000" r="150" gradientUnits="userSpaceOnUse" id="color-5"><stop offset="1" stop-color="#3f51b5"/><stop offset="1" stop-color="#1a237e"/></radialGradient><radialGradient cx="33100" cy="21100" r="150" gradientUnits="userSpaceOnUse" id="color-6"><stop offset="1" stop-color="#3f51b5"/><stop offset="1" stop-color="#1a237e"/></radialGradient><radialGradient cx="87900" cy="25100" r="250" gradientUnits="userSpaceOnUse" id="color-7"><stop offset="1" stop-color="#3f51b5"/><stop offset="1" stop-color="#1a237e"/></radialGradient><radialGradient cx="83300" cy="25100" r="250" gradientUnits="userSpaceOnUse" id="color-8"><stop offset="1" stop-color="#3f51b5"/><stop offset="1" stop-color="#1a237e"/></radialGradient><radialGradient cx="58800" cy="14400" r="1010" gradientUnits="userSpaceOnUse" id="color-9"><stop offset="1" stop-color="#5c6bc0"/><stop offset="1" stop-color="#1a237e"/></radialGradient><radialGradient cx="36400" cy="46800" r="1010" gradientUnits="userSpaceOnUse" id="color-10"><stop offset="1" stop-color="#5c6bc0"/><stop offset="1" stop-color="#1a237e"/></radialGradient><radialGradient cx="41400" cy="4500" r="2020" gradientUnits="userSpaceOnUse" id="color-11"><stop offset="1" stop-color="#5c6bc0"/><stop offset="1" stop-color="#1a237e"/></radialGradient><radialGradient cx="21000" cy="45000" r="1010" gradientUnits="userSpaceOnUse" id="color-12"><stop offset="1" stop-color="#5c6bc0"/><stop offset="1" stop-color="#1a237e"/></radialGradient><radialGradient cx="52000" cy="44000" r="2020" gradientUnits="userSpaceOnUse" id="color-13"><stop offset="1" stop-color="#5c6bc0"/><stop offset="1" stop-color="#1a237e"/></radialGradient><radialGradient cx="32000" cy="10000" r="1010" gradientUnits="userSpaceOnUse" id="color-14"><stop offset="1" stop-color="#5c6bc0"/><stop offset="1" stop-color="#1a237e"/></radialGradient><radialGradient cx="17800" cy="8400" r="2020" gradientUnits="userSpaceOnUse" id="color-15"><stop offset="1" stop-color="#5c6bc0"/><stop offset="1" stop-color="#1a237e"/></radialGradient><radialGradient cx="17000" cy="25000" r="2020" gradientUnits="userSpaceOnUse" id="color-16"><stop offset="1" stop-color="#5c6bc0"/><stop offset="1" stop-color="#1a237e"/></radialGradient><radialGradient cx="87900" cy="37600" r="1000" gradientUnits="userSpaceOnUse" id="color-17"><stop offset="1" stop-color="#5c6bc0"/><stop offset="1" stop-color="#1a237e"/></radialGradient></defs><g fill="none" stroke="none" stroke-width="none" stroke-linecap="butt" stroke-linejoin="miter" stroke-miterlimit="10" stroke-dasharray="" stroke-dashoffset="0" font-family="sans-serif" font-weight="normal" font-size="12" text-anchor="start" mix-blend-mode="normal"><polygon points="47101.31574,14649.99423 47098.68426,14350.00577 58498.68426,14250.00577 58501.31574,14549.99423" fill="#1a237e" stroke-width="0"/><polygon points="36050.01467,32502.0977 36349.98533,32497.9023 36549.98533,46797.9023 36250.01467,46802.0977" fill="#1a237e" stroke-width="0"/><polygon points="40000,40400 40000,39600 40000,39600 40000,40400" fill="#1a237e" stroke-width="0"/><polygon points="47149.96877,19403.06059 46850.03123,19396.93941 46950.03123,14496.93941 47249.96877,14503.06059" fill="#1a237e" stroke-width="0"/><polygon points="41449.98798,14101.89858 41150.01202,14098.10142 41250.01202,6198.10142 41549.98798,6201.89858" fill="#1a237e" stroke-width="0"/><polygon points="20000,44150 20000,43850 20000,43850 20000,44150" fill="#1a237e" stroke-width="0"/><polygon points="39688.71106,30600.57222 39911.28894,30399.42778 52111.28894,43899.42778 51888.71106,44100.57222" fill="#1a237e" stroke-width="0"/><polygon points="31000,10150 31000,9850 31000,9850 31000,10150" fill="#1a237e" stroke-width="0"/><polygon points="31580.82217,30908.91408 31819.17783,31091.08592 21119.17783,45091.08592 20880.82217,44908.91408" fill="#1a237e" stroke-width="0"/><polygon points="31861.59965,10057.83895 32138.40035,9942.16105 34938.40035,16642.16105 34661.59965,16757.83895" fill="#1a237e" stroke-width="0"/><polygon points="23122.06002,15912.81427 22877.93998,16087.18573 17877.93998,9087.18573 18122.06002,8912.81427" fill="#1a237e" stroke-width="0"/><polygon points="33100,21250 33100,20950 33100,20950 33100,21250" fill="#1a237e" stroke-width="0"/><polygon points="33167.6118,20966.10211 33032.3882,21233.89789 22932.3882,16133.89789 23067.6118,15866.10211" fill="#1a237e" stroke-width="0"/><polygon points="16999.66733,25249.99978 17000.33267,24750.00022 32030.33267,24770.00022 32029.66733,25269.99978" fill="#1a237e" stroke-width="0"/><path d="M40900,14300.5c-0.27614,0 -0.5,-0.22386 -0.5,-0.5l0,-300c0,-0.27614 0.22386,-0.5 0.5,-0.5l800,0c0.27614,0 0.5,0.22386 0.5,0.5l0,300c0,0.27614 -0.22386,0.5 -0.5,0.5z" fill="#1a237e" stroke-width="0"/><path d="M40900,14900.5c-0.27614,0 -0.5,-0.22386 -0.5,-0.5l0,-300c0,-0.27614 0.22386,-0.5 0.5,-0.5l800,0c0.27614,0 0.5,0.22386 0.5,0.5l0,300c0,0.27614 -0.22386,0.5 -0.5,0.5z" fill="#1a237e" stroke-width="0"/><path d="M46600,19500.5c-0.27614,0 -0.5,-0.22386 -0.5,-0.5l0,-300c0,-0.27614 0.22386,-0.5 0.5,-0.5l800,0c0.27614,0 0.5,0.22386 0.5,0.5l0,300c0,0.27614 -0.22386,0.5 -0.5,0.5z" fill="#1a237e" stroke-width="0"/><path d="M46600,20100.5c-0.27614,0 -0.5,-0.22386 -0.5,-0.5l0,-300c0,-0.27614 0.22386,-0.5 0.5,-0.5l800,0c0.27614,0 0.5,0.22386 0.5,0.5l0,300c0,0.27614 -0.22386,0.5 -0.5,0.5z" fill="#1a237e" stroke-width="0"/><polygon points="47150,25000 46850,25000 46850,19900 47150,19900" fill="#1a237e" stroke-width="0"/><polygon points="41450,25000 41150,25000 41150,14700 41450,14700" fill="#1a237e" stroke-width="0"/><path d="M35800,32600.5c-0.27614,0 -0.5,-0.22386 -0.5,-0.5l0,-300c0,-0.27614 0.22386,-0.5 0.5,-0.5l800,0c0.27614,0 0.5,0.22386 0.5,0.5l0,300c0,0.27614 -0.22386,0.5 -0.5,0.5z" fill="#1a237e" stroke-width="0"/><path d="M35800,32000.5c-0.27614,0 -0.5,-0.22386 -0.5,-0.5l0,-300c0,-0.27614 0.22386,-0.5 0.5,-0.5l800,0c0.27614,0 0.5,0.22386 0.5,0.5l0,300c0,0.27614 -0.22386,0.5 -0.5,0.5z" fill="#1a237e" stroke-width="0"/><polygon points="39650,29200 39950,29200 39950,30500 39650,30500" fill="#1a237e" stroke-width="0"/><path d="M39400,29300.5c-0.27614,0 -0.5,-0.22386 -0.5,-0.5l0,-300c0,-0.27614 0.22386,-0.5 0.5,-0.5l800,0c0.27614,0 0.5,0.22386 0.5,0.5l0,300c0,0.27614 -0.22386,0.5 -0.5,0.5z" fill="#1a237e" stroke-width="0"/><path d="M39400,28700.5c-0.27614,0 -0.5,-0.22386 -0.5,-0.5l0,-300c0,-0.27614 0.22386,-0.5 0.5,-0.5l800,0c0.27614,0 0.5,0.22386 0.5,0.5l0,300c0,0.27614 -0.22386,0.5 -0.5,0.5z" fill="#1a237e" stroke-width="0"/><polygon points="39650,25000 39950,25000 39950,28700 39650,28700" fill="#1a237e" stroke-width="0"/><polygon points="36050,25000 36350,25000 36350,31900 36050,31900" fill="#1a237e" stroke-width="0"/><polygon points="31550,28700 31850,28700 31850,31000 31550,31000" fill="#1a237e" stroke-width="0"/><polygon points="31550,25000 31850,25000 31850,28100 31550,28100" fill="#1a237e" stroke-width="0"/><polygon points="34950,18800 34650,18800 34650,16700 34950,16700" fill="#1a237e" stroke-width="0"/><polygon points="33250,21800 32950,21800 32950,21100 33250,21100" fill="#1a237e" stroke-width="0"/><path d="M34400,19000.5c-0.27614,0 -0.5,-0.22386 -0.5,-0.5l0,-300c0,-0.27614 0.22386,-0.5 0.5,-0.5l800,0c0.27614,0 0.5,0.22386 0.5,0.5l0,300c0,0.27614 -0.22386,0.5 -0.5,0.5z" fill="#1a237e" stroke-width="0"/><path d="M34400,19600.5c-0.27614,0 -0.5,-0.22386 -0.5,-0.5l0,-300c0,-0.27614 0.22386,-0.5 0.5,-0.5l800,0c0.27614,0 0.5,0.22386 0.5,0.5l0,300c0,0.27614 -0.22386,0.5 -0.5,0.5z" fill="#1a237e" stroke-width="0"/><polygon points="33250,25000 32950,25000 32950,22400 33250,22400" fill="#1a237e" stroke-width="0"/><polygon points="34950,25000 34650,25000 34650,19500 34950,19500" fill="#1a237e" stroke-width="0"/><path d="M32700,22000.5c-0.27614,0 -0.5,-0.22386 -0.5,-0.5l0,-300c0,-0.27614 0.22386,-0.5 0.5,-0.5l800,0c0.27614,0 0.5,0.22386 0.5,0.5l0,300c0,0.27614 -0.22386,0.5 -0.5,0.5z" fill="#1a237e" stroke-width="0"/><path d="M32700,22600.5c-0.27614,0 -0.5,-0.22386 -0.5,-0.5l0,-300c0,-0.27614 0.22386,-0.5 0.5,-0.5l800,0c0.27614,0 0.5,0.22386 0.5,0.5l0,300c0,0.27614 -0.22386,0.5 -0.5,0.5z" fill="#1a237e" stroke-width="0"/><polygon points="87650,34700 88150,34700 90150,37700 88150,40700 87650,40700 85650,37700" fill="#1a237e" stroke-width="1"/><polygon points="87650,33000 88150,33000 88150,36000 87650,36000" fill="#1a237e" stroke-width="0"/><path d="M87500,33100.5c-0.27614,0 -0.5,-0.22386 -0.5,-0.5l0,-300c0,-0.27614 0.22386,-0.5 0.5,-0.5l800,0c0.27614,0 0.5,0.22386 0.5,0.5l0,300c0,0.27614 -0.22386,0.5 -0.5,0.5z" fill="#1a237e" stroke-width="0"/><path d="M87500,32500.5c-0.27614,0 -0.5,-0.22386 -0.5,-0.5l0,-300c0,-0.27614 0.22386,-0.5 0.5,-0.5l800,0c0.27614,0 0.5,0.22386 0.5,0.5l0,300c0,0.27614 -0.22386,0.5 -0.5,0.5z" fill="#1a237e" stroke-width="0"/><polygon points="87650,25100 88150,25100 88150,32300 87650,32300" fill="#1a237e" stroke-width="0"/><polygon points="83300,25350 83300,24850 87900,24850 87900,25350" fill="#1a237e" stroke-width="0"/><polygon points="48300.76923,25249.99882 48299.23077,24750.00118 51549.23077,24740.00118 51550.76923,25239.99882" fill="#1a237e" stroke-width="0"/><polygon points="41640,24750 41640,25250 44100,26480 46560,25250 46560,24750 44100,23520" fill="#1a237e" stroke-width="1"/><polygon points="47600,24750 47600,25250 46500,25250 46500,24750" fill="#1a237e" stroke-width="0"/><polygon points="40800,25250 40800,24750 42300,24750 42300,25250" fill="#1a237e" stroke-width="0"/><path d="M51050,25080l0,-1730l500,0l0,1730z M53550,23850l0,-500l-2000,0l0,500z M53550,26810l0,-2960l-500,0l0,2960z M55550,26810l0,-500l-2000,0l0,500z M55550,26310l0,-2960l-500,0l0,2960z M57550,23850l0,-500l-2000,0l0,500z M57550,26810l0,-2960l-500,0l0,2960z M59550,26810l0,-500l-2000,0l0,500z M59550,26310l0,-2960l-500,0l0,2960z M61550,23850l0,-500l-2000,0l0,500z M61550,26810l0,-2960l-500,0l0,2960z M63550,26810l0,-500l-2000,0l0,500z M63550,26310l0,-2960l-500,0l0,2960z M65550,23850l0,-500l-2000,0l0,500z M65550,26810l0,-2960l-500,0l0,2960z M67550,26810l0,-500l-2000,0l0,500z M67550,26310l0,-2960l-500,0l0,2960z M69550,23850l0,-500l-2000,0l0,500z M69550,26810l0,-2960l-500,0l0,2960z M71550,26810l0,-500l-2000,0l0,500z M71550,26310l0,-2960l-500,0l0,2960z M73550,23850l0,-500l-2000,0l0,500z M73550,26810l0,-2960l-500,0l0,2960z M75550,26810l0,-500l-2000,0l0,500z M75550,26310l0,-2960l-500,0l0,2960z M77550,23850l0,-500l-2000,0l0,500z M77550,26810l0,-2960l-500,0l0,2960z M79550,26810l0,-500l-2000,0l0,500z M79550,26310l0,-2960l-500,0l0,2960z M81550,23850l0,-500l-2000,0l0,500z M81550,26810l0,-2960l-500,0l0,2960z M83550,26810l0,-500l-2000,0l0,500z M83550,26310l0,-1230l-500,0l0,1230z" fill="#1a237e" stroke-width="1"/><path d="M48100,25400.5c-0.27614,0 -0.5,-0.22386 -0.5,-0.5l0,-800c0,-0.27614 0.22386,-0.5 0.5,-0.5l300,0c0.27614,0 0.5,0.22386 0.5,0.5l0,800c0,0.27614 -0.22386,0.5 -0.5,0.5z" fill="#1a237e" stroke-width="0"/><path d="M47500,25400.5c-0.27614,0 -0.5,-0.22386 -0.5,-0.5l0,-800c0,-0.27614 0.22386,-0.5 0.5,-0.5l300,0c0.27614,0 0.5,0.22386 0.5,0.5l0,800c0,0.27614 -0.22386,0.5 -0.5,0.5z" fill="#1a237e" stroke-width="0"/><path d="M40600,25400.5c-0.27614,0 -0.5,-0.22386 -0.5,-0.5l0,-800c0,-0.27614 0.22386,-0.5 0.5,-0.5l300,0c0.27614,0 0.5,0.22386 0.5,0.5l0,800c0,0.27614 -0.22386,0.5 -0.5,0.5z" fill="#1a237e" stroke-width="0"/><path d="M40000,25400.5c-0.27614,0 -0.5,-0.22386 -0.5,-0.5l0,-800c0,-0.27614 0.22386,-0.5 0.5,-0.5l300,0c0.27614,0 0.5,0.22386 0.5,0.5l0,800c0,0.27614 -0.22386,0.5 -0.5,0.5z" fill="#1a237e" stroke-width="0"/><polygon points="35800,25250 35800,24750 40100,24750 40100,25250" fill="#1a237e" stroke-width="0"/><path d="M35600,25400.5c-0.27614,0 -0.5,-0.22386 -0.5,-0.5l0,-800c0,-0.27614 0.22386,-0.5 0.5,-0.5l300,0c0.27614,0 0.5,0.22386 0.5,0.5l0,800c0,0.27614 -0.22386,0.5 -0.5,0.5z" fill="#1a237e" stroke-width="0"/><path d="M35000,25400.5c-0.27614,0 -0.5,-0.22386 -0.5,-0.5l0,-800c0,-0.27614 0.22386,-0.5 0.5,-0.5l300,0c0.27614,0 0.5,0.22386 0.5,0.5l0,800c0,0.27614 -0.22386,0.5 -0.5,0.5z" fill="#1a237e" stroke-width="0"/><polygon points="32800,25250 32800,24750 35100,24750 35100,25250" fill="#1a237e" stroke-width="0"/><polygon points="35000,25250 35000,24750 35000,24750 35000,25250" fill="#1a237e" stroke-width="0"/><path d="M31300,28900.5c-0.27614,0 -0.5,-0.22386 -0.5,-0.5l0,-300c0,-0.27614 0.22386,-0.5 0.5,-0.5l800,0c0.27614,0 0.5,0.22386 0.5,0.5l0,300c0,0.27614 -0.22386,0.5 -0.5,0.5z" fill="#1a237e" stroke-width="0"/><path d="M31300,28300.5c-0.27614,0 -0.5,-0.22386 -0.5,-0.5l0,-300c0,-0.27614 0.22386,-0.5 0.5,-0.5l800,0c0.27614,0 0.5,0.22386 0.5,0.5l0,300c0,0.27614 -0.22386,0.5 -0.5,0.5z" fill="#1a237e" stroke-width="0"/><path d="M32600,25400.5c-0.27614,0 -0.5,-0.22386 -0.5,-0.5l0,-800c0,-0.27614 0.22386,-0.5 0.5,-0.5l300,0c0.27614,0 0.5,0.22386 0.5,0.5l0,800c0,0.27614 -0.22386,0.5 -0.5,0.5z" fill="#1a237e" stroke-width="0"/><path d="M32000,25400.5c-0.27614,0 -0.5,-0.22386 -0.5,-0.5l0,-800c0,-0.27614 0.22386,-0.5 0.5,-0.5l300,0c0.27614,0 0.5,0.22386 0.5,0.5l0,800c0,0.27614 -0.22386,0.5 -0.5,0.5z" fill="#1a237e" stroke-width="0"/><polygon points="400,85000 -400,85000 -400,0 400,0" fill="#1a237e" stroke-width="0"/><polygon points="135000,84600 135000,85400 0,85400 0,84600" fill="#1a237e" stroke-width="0"/><polygon points="134600,0 135400,0 135400,85000 134600,85000" fill="#1a237e" stroke-width="0"/><polygon points="0,400 0,-400 135000,-400 135000,400" fill="#1a237e" stroke-width="0"/><path d="M46950,14500c0,-82.84271 67.15729,-150 150,-150c82.84271,0 150,67.15729 150,150c0,82.84271 -67.15729,150 -150,150c-82.84271,0 -150,-67.15729 -150,-150z" fill="url(#color-1)" stroke-width="1"/><path d="M34650,16700c0,-82.84271 67.15729,-150 150,-150c82.84271,0 150,67.15729 150,150c0,82.84271 -67.15729,150 -150,150c-82.84271,0 -150,-67.15729 -150,-150z" fill="url(#color-2)" stroke-width="1"/><path d="M22850,16000c0,-82.84271 67.15729,-150 150,-150c82.84271,0 150,67.15729 150,150c0,82.84271 -67.15729,150 -150,150c-82.84271,0 -150,-67.15729 -150,-150z" fill="url(#color-3)" stroke-width="1"/><path d="M39650,30500c0,-82.84271 67.15729,-150 150,-150c82.84271,0 150,67.15729 150,150c0,82.84271 -67.15729,150 -150,150c-82.84271,0 -150,-67.15729 -150,-150z" fill="url(#color-4)" stroke-width="1"/><path d="M31550,31000c0,-82.84271 67.15729,-150 150,-150c82.84271,0 150,67.15729 150,150c0,82.84271 -67.15729,150 -150,150c-82.84271,0 -150,-67.15729 -150,-150z" fill="url(#color-5)" stroke-width="1"/><path d="M32950,21100c0,-82.84271 67.15729,-150 150,-150c82.84271,0 150,67.15729 150,150c0,82.84271 -67.15729,150 -150,150c-82.84271,0 -150,-67.15729 -150,-150z" fill="url(#color-6)" stroke-width="1"/><path d="M87650,25100c0,-138.07119 111.92881,-250 250,-250c138.07119,0 250,111.92881 250,250c0,138.07119 -111.92881,250 -250,250c-138.07119,0 -250,-111.92881 -250,-250z" fill="url(#color-7)" stroke-width="1"/><path d="M83050,25100c0,-138.07119 111.92881,-250 250,-250c138.07119,0 250,111.92881 250,250c0,138.07119 -111.92881,250 -250,250c-138.07119,0 -250,-111.92881 -250,-250z" fill="url(#color-8)" stroke-width="1"/><path d="M57790,14400c0,-557.8076 452.1924,-1010 1010,-1010c557.8076,0 1010,452.1924 1010,1010c0,557.8076 -452.1924,1010 -1010,1010c-557.8076,0 -1010,-452.1924 -1010,-1010z" fill="url(#color-9)" stroke-width="1"/><path d="M35390,46800c0,-557.8076 452.1924,-1010 1010,-1010c557.8076,0 1010,452.1924 1010,1010c0,557.8076 -452.1924,1010 -1010,1010c-557.8076,0 -1010,-452.1924 -1010,-1010z" fill="url(#color-10)" stroke-width="1"/><path d="M39380,4500c0,-1115.61519 904.38481,-2020 2020,-2020c1115.61519,0 2020,904.38481 2020,2020c0,1115.61519 -904.38481,2020 -2020,2020c-1115.61519,0 -2020,-904.38481 -2020,-2020z" fill="url(#color-11)" stroke-width="1"/><path d="M19990,45000c0,-557.8076 452.1924,-1010 1010,-1010c557.8076,0 1010,452.1924 1010,1010c0,557.8076 -452.1924,1010 -1010,1010c-557.8076,0 -1010,-452.1924 -1010,-1010z" fill="url(#color-12)" stroke-width="1"/><path d="M49980,44000c0,-1115.61519 904.38481,-2020 2020,-2020c1115.61519,0 2020,904.38481 2020,2020c0,1115.61519 -904.38481,2020 -2020,2020c-1115.61519,0 -2020,-904.38481 -2020,-2020z" fill="url(#color-13)" stroke-width="1"/><path d="M30990,10000c0,-557.8076 452.1924,-1010 1010,-1010c557.8076,0 1010,452.1924 1010,1010c0,557.8076 -452.1924,1010 -1010,1010c-557.8076,0 -1010,-452.1924 -1010,-1010z" fill="url(#color-14)" stroke-width="1"/><path d="M15780,8400c0,-1115.61519 904.38481,-2020 2020,-2020c1115.61519,0 2020,904.38481 2020,2020c0,1115.61519 -904.38481,2020 -2020,2020c-1115.61519,0 -2020,-904.38481 -2020,-2020z" fill="url(#color-15)" stroke-width="1"/><path d="M14980,25000c0,-1115.61519 904.38481,-2020 2020,-2020c1115.61519,0 2020,904.38481 2020,2020c0,1115.61519 -904.38481,2020 -2020,2020c-1115.61519,0 -2020,-904.38481 -2020,-2020z" fill="url(#color-16)" stroke-width="1"/><path d="M86900,37600c0,-552.28475 447.71525,-1000 1000,-1000c552.28475,0 1000,447.71525 1000,1000c0,552.28475 -447.71525,1000 -1000,1000c-552.28475,0 -1000,-447.71525 -1000,-1000z" fill="url(#color-17)" stroke-width="1"/></g></svg>