<?xml version="1.0" encoding="UTF-8" standalone="no"?>
<svg
   xmlns:dc="http://purl.org/dc/elements/1.1/"
   xmlns:cc="http://creativecommons.org/ns#"
   xmlns:rdf="http://www.w3.org/1999/02/22-rdf-syntax-ns#"
   xmlns:svg="http://www.w3.org/2000/svg"
   xmlns="http://www.w3.org/2000/svg"
   xmlns:sodipodi="http://sodipodi.sourceforge.net/DTD/sodipodi-0.dtd"
   xmlns:inkscape="http://www.inkscape.org/namespaces/inkscape"
   width="135mm"
   height="85mm"
   viewBox="0 0 135000 85000"
   version="1.1"
   id="svg255"
   sodipodi:docname="Flow_Ports.svg"
   inkscape:version="0.92.1 r15371">
  <metadata
     id="metadata259">
    <rdf:RDF>
      <cc:Work
         rdf:about="">
        <dc:format>image/svg+xml</dc:format>
        <dc:type
           rdf:resource="http://purl.org/dc/dcmitype/StillImage" />
        <dc:title></dc:title>
      </cc:Work>
    </rdf:RDF>
  </metadata>
  <sodipodi:namedview
     pagecolor="#ffffff"
     bordercolor="#666666"
     borderopacity="1"
     objecttolerance="10"
     gridtolerance="10"
     guidetolerance="10"
     inkscape:pageopacity="0"
     inkscape:pageshadow="2"
     inkscape:window-width="1366"
     inkscape:window-height="705"
     id="namedview257"
     showgrid="false"
     inkscape:zoom="1.5909466"
     inkscape:cx="206.25043"
     inkscape:cy="155.50195"
     inkscape:window-x="-8"
     inkscape:window-y="-8"
     inkscape:window-maximized="1"
     inkscape:current-layer="svg255" />
  <defs
     id="defs87">
    <radialGradient
       cx="47100"
       cy="14500"
       r="150"
       gradientUnits="userSpaceOnUse"
       id="color-1">
      <stop
         offset="1"
         stop-color="#3f51b5"
         id="stop2" />
      <stop
         offset="1"
         stop-color="#1a237e"
         id="stop4" />
    </radialGradient>
    <radialGradient
       cx="34800"
       cy="16700"
       r="150"
       gradientUnits="userSpaceOnUse"
       id="color-2">
      <stop
         offset="1"
         stop-color="#3f51b5"
         id="stop7" />
      <stop
         offset="1"
         stop-color="#1a237e"
         id="stop9" />
    </radialGradient>
    <radialGradient
       cx="23000"
       cy="16000"
       r="150"
       gradientUnits="userSpaceOnUse"
       id="color-3">
      <stop
         offset="1"
         stop-color="#3f51b5"
         id="stop12" />
      <stop
         offset="1"
         stop-color="#1a237e"
         id="stop14" />
    </radialGradient>
    <radialGradient
       cx="39800"
       cy="30500"
       r="150"
       gradientUnits="userSpaceOnUse"
       id="color-4">
      <stop
         offset="1"
         stop-color="#3f51b5"
         id="stop17" />
      <stop
         offset="1"
         stop-color="#1a237e"
         id="stop19" />
    </radialGradient>
    <radialGradient
       cx="31700"
       cy="31000"
       r="150"
       gradientUnits="userSpaceOnUse"
       id="color-5">
      <stop
         offset="1"
         stop-color="#3f51b5"
         id="stop22" />
      <stop
         offset="1"
         stop-color="#1a237e"
         id="stop24" />
    </radialGradient>
    <radialGradient
       cx="33100"
       cy="21100"
       r="150"
       gradientUnits="userSpaceOnUse"
       id="color-6">
      <stop
         offset="1"
         stop-color="#3f51b5"
         id="stop27" />
      <stop
         offset="1"
         stop-color="#1a237e"
         id="stop29" />
    </radialGradient>
    <radialGradient
       cx="87900"
       cy="25100"
       r="250"
       gradientUnits="userSpaceOnUse"
       id="color-7">
      <stop
         offset="1"
         stop-color="#3f51b5"
         id="stop32" />
      <stop
         offset="1"
         stop-color="#1a237e"
         id="stop34" />
    </radialGradient>
    <radialGradient
       cx="83300"
       cy="25100"
       r="250"
       gradientUnits="userSpaceOnUse"
       id="color-8">
      <stop
         offset="1"
         stop-color="#3f51b5"
         id="stop37" />
      <stop
         offset="1"
         stop-color="#1a237e"
         id="stop39" />
    </radialGradient>
    <radialGradient
       cx="32000"
       cy="10000"
       r="1010"
       gradientUnits="userSpaceOnUse"
       id="color-9">
      <stop
         offset="1"
         stop-color="#5c6bc0"
         id="stop42" />
      <stop
         offset="1"
         stop-color="#1a237e"
         id="stop44" />
    </radialGradient>
    <radialGradient
       cx="58800"
       cy="14400"
       r="1010"
       gradientUnits="userSpaceOnUse"
       id="color-10">
      <stop
         offset="1"
         stop-color="#5c6bc0"
         id="stop47" />
      <stop
         offset="1"
         stop-color="#1a237e"
         id="stop49" />
    </radialGradient>
    <radialGradient
       cx="36400"
       cy="46800"
       r="1010"
       gradientUnits="userSpaceOnUse"
       id="color-11">
      <stop
         offset="1"
         stop-color="#5c6bc0"
         id="stop52" />
      <stop
         offset="1"
         stop-color="#1a237e"
         id="stop54" />
    </radialGradient>
    <radialGradient
       cx="41400"
       cy="4500"
       r="2020"
       gradientUnits="userSpaceOnUse"
       id="color-12">
      <stop
         offset="1"
         stop-color="#5c6bc0"
         id="stop57" />
      <stop
         offset="1"
         stop-color="#1a237e"
         id="stop59" />
    </radialGradient>
    <radialGradient
       cx="21000"
       cy="45000"
       r="1010"
       gradientUnits="userSpaceOnUse"
       id="color-13">
      <stop
         offset="1"
         stop-color="#5c6bc0"
         id="stop62" />
      <stop
         offset="1"
         stop-color="#1a237e"
         id="stop64" />
    </radialGradient>
    <radialGradient
       cx="52000"
       cy="44000"
       r="2020"
       gradientUnits="userSpaceOnUse"
       id="color-14">
      <stop
         offset="1"
         stop-color="#5c6bc0"
         id="stop67" />
      <stop
         offset="1"
         stop-color="#1a237e"
         id="stop69" />
    </radialGradient>
    <radialGradient
       cx="17800"
       cy="8400"
       r="2020"
       gradientUnits="userSpaceOnUse"
       id="color-15">
      <stop
         offset="1"
         stop-color="#5c6bc0"
         id="stop72" />
      <stop
         offset="1"
         stop-color="#1a237e"
         id="stop74" />
    </radialGradient>
    <radialGradient
       cx="17000"
       cy="25000"
       r="2020"
       gradientUnits="userSpaceOnUse"
       id="color-16">
      <stop
         offset="1"
         stop-color="#5c6bc0"
         id="stop77" />
      <stop
         offset="1"
         stop-color="#1a237e"
         id="stop79" />
    </radialGradient>
    <radialGradient
       cx="87900"
       cy="37600"
       r="1000"
       gradientUnits="userSpaceOnUse"
       id="color-17">
      <stop
         offset="1"
         stop-color="#5c6bc0"
         id="stop82" />
      <stop
         offset="1"
         stop-color="#1a237e"
         id="stop84" />
    </radialGradient>
  </defs>
  <g
     fill="none"
     stroke="none"
     stroke-width="none"
     stroke-linecap="butt"
     stroke-linejoin="miter"
     stroke-miterlimit="10"
     stroke-dasharray=""
     stroke-dashoffset="0"
     font-family="sans-serif"
     font-weight="normal"
     font-size="12"
     text-anchor="start"
     mix-blend-mode="normal"
     id="g253">
    <polygon
       points="40000,40400 40000,39600 40000,39600 40000,40400"
       fill="#1a237e"
       stroke-width="0"
       id="polygon93" />
    <polygon
       points="20000,44150 20000,43850 20000,43850 20000,44150"
       fill="#1a237e"
       stroke-width="0"
       id="polygon99" />
    <polygon
       points="31000,10150 31000,9850 31000,9850 31000,10150"
       fill="#1a237e"
       stroke-width="0"
       id="polygon103" />
    <polygon
       points="33100,21250 33100,20950 33100,20950 33100,21250"
       fill="#1a237e"
       stroke-width="0"
       id="polygon111" />
    <path
       d="M30990,10000c0,-557.8076 452.1924,-1010 1010,-1010c557.8076,0 1010,452.1924 1010,1010c0,557.8076 -452.1924,1010 -1010,1010c-557.8076,0 -1010,-452.1924 -1010,-1010z"
       fill="url(#color-9)"
       stroke-width="1"
       id="path235" />
    <path
       d="M57790,14400c0,-557.8076 452.1924,-1010 1010,-1010c557.8076,0 1010,452.1924 1010,1010c0,557.8076 -452.1924,1010 -1010,1010c-557.8076,0 -1010,-452.1924 -1010,-1010z"
       fill="url(#color-10)"
       stroke-width="1"
       id="path237" />
    <path
       d="M35390,46800c0,-557.8076 452.1924,-1010 1010,-1010c557.8076,0 1010,452.1924 1010,1010c0,557.8076 -452.1924,1010 -1010,1010c-557.8076,0 -1010,-452.1924 -1010,-1010z"
       fill="url(#color-11)"
       stroke-width="1"
       id="path239" />
    <path
       d="M39380,4500c0,-1115.61519 904.38481,-2020 2020,-2020c1115.61519,0 2020,904.38481 2020,2020c0,1115.61519 -904.38481,2020 -2020,2020c-1115.61519,0 -2020,-904.38481 -2020,-2020z"
       fill="url(#color-12)"
       stroke-width="1"
       id="path241" />
    <path
       d="M19990,45000c0,-557.8076 452.1924,-1010 1010,-1010c557.8076,0 1010,452.1924 1010,1010c0,557.8076 -452.1924,1010 -1010,1010c-557.8076,0 -1010,-452.1924 -1010,-1010z"
       fill="url(#color-13)"
       stroke-width="1"
       id="path243" />
    <path
       d="M49980,44000c0,-1115.61519 904.38481,-2020 2020,-2020c1115.61519,0 2020,904.38481 2020,2020c0,1115.61519 -904.38481,2020 -2020,2020c-1115.61519,0 -2020,-904.38481 -2020,-2020z"
       fill="url(#color-14)"
       stroke-width="1"
       id="path245" />
    <path
       d="M15780,8400c0,-1115.61519 904.38481,-2020 2020,-2020c1115.61519,0 2020,904.38481 2020,2020c0,1115.61519 -904.38481,2020 -2020,2020c-1115.61519,0 -2020,-904.38481 -2020,-2020z"
       fill="url(#color-15)"
       stroke-width="1"
       id="path247" />
    <path
       d="M14980,25000c0,-1115.61519 904.38481,-2020 2020,-2020c1115.61519,0 2020,904.38481 2020,2020c0,1115.61519 -904.38481,2020 -2020,2020c-1115.61519,0 -2020,-904.38481 -2020,-2020z"
       fill="url(#color-16)"
       stroke-width="1"
       id="path249" />
    <path
       d="M86900,37600c0,-552.28475 447.71525,-1000 1000,-1000c552.28475,0 1000,447.71525 1000,1000c0,552.28475 -447.71525,1000 -1000,1000c-552.28475,0 -1000,-447.71525 -1000,-1000z"
       fill="url(#color-17)"
       stroke-width="1"
       id="path251" />
  </g>
</svg>
